<mxfile host="app.diagrams.net" agent="Mozilla/5.0 (Windows NT 10.0; Win64; x64) AppleWebKit/537.36 (KHTML, like Gecko) Chrome/131.0.0.0 Safari/537.36" version="24.9.3">
  <diagram name="Page-1" id="64c3da0e-402f-94eb-ee01-a36477274f13">
    <mxGraphModel grid="1" page="1" gridSize="10" guides="1" tooltips="1" connect="1" arrows="1" fold="1" pageScale="1" pageWidth="1169" pageHeight="826" background="none" math="0" shadow="0">
      <root>
        <mxCell id="0" />
        <mxCell id="1" parent="0" />
        <mxCell id="2" value="MagikStock" style="whiteSpace=wrap;rounded=1;shadow=1;fillColor=#10739E;strokeColor=none;fontColor=#FFFFFF;fontStyle=1;fontSize=24" vertex="1" parent="1">
          <mxGeometry x="690" y="30" width="340" height="60" as="geometry" />
        </mxCell>
        <mxCell id="3" value="INICIO" style="whiteSpace=wrap;rounded=1;fillColor=#F2931E;strokeColor=none;shadow=1;fontColor=#FFFFFF;fontStyle=1;fontSize=14" vertex="1" parent="1">
          <mxGeometry x="-150" y="159.9999999999998" width="140" height="60" as="geometry" />
        </mxCell>
        <mxCell id="4" value="PLANIFICACION" style="whiteSpace=wrap;rounded=1;fillColor=#F2931E;strokeColor=none;shadow=1;fontColor=#FFFFFF;fontStyle=1;fontSize=14" vertex="1" parent="1">
          <mxGeometry y="159.9999999999998" width="140" height="60" as="geometry" />
        </mxCell>
        <mxCell id="5" value="CIERRE DEL PROYECTO" style="whiteSpace=wrap;rounded=1;fillColor=#F2931E;strokeColor=none;shadow=1;fontColor=#FFFFFF;fontStyle=1;fontSize=14" vertex="1" parent="1">
          <mxGeometry x="1780" y="159.9999999999998" width="140" height="60" as="geometry" />
        </mxCell>
        <mxCell id="6" value="DESARROLLO" style="whiteSpace=wrap;rounded=1;fillColor=#F2931E;strokeColor=none;shadow=1;fontColor=#FFFFFF;fontStyle=1;fontSize=14" vertex="1" parent="1">
          <mxGeometry x="410" y="159.9999999999998" width="140" height="60" as="geometry" />
        </mxCell>
        <mxCell id="7" value="PRUEBAS Y CONTROL DE CALIDAD" style="whiteSpace=wrap;rounded=1;fillColor=#F2931E;strokeColor=none;shadow=1;fontColor=#FFFFFF;fontStyle=1;fontSize=14" vertex="1" parent="1">
          <mxGeometry x="960" y="159.9999999999998" width="140" height="60" as="geometry" />
        </mxCell>
        <mxCell id="8" value="IMPLEMENTACION Y DESPLIEGUE" style="whiteSpace=wrap;rounded=1;fillColor=#F2931E;strokeColor=none;shadow=1;fontColor=#FFFFFF;fontStyle=1;fontSize=14" vertex="1" parent="1">
          <mxGeometry x="1370" y="159.9999999999998" width="140" height="60" as="geometry" />
        </mxCell>
        <mxCell id="10" value="1.1 Definir objetivos del proyecto MagikStock" style="whiteSpace=wrap;rounded=1;fillColor=#12AAB5;strokeColor=none;shadow=1;fontColor=#FFFFFF;fontSize=13;align=center;" vertex="1" parent="1">
          <mxGeometry x="-140" y="240.0000000000001" width="120" height="60" as="geometry" />
        </mxCell>
        <mxCell id="43" value="2.1 Definir el alcance del sistema" style="whiteSpace=wrap;rounded=1;fillColor=#12AAB5;strokeColor=none;shadow=1;fontColor=#FFFFFF;fontSize=13;" vertex="1" parent="1">
          <mxGeometry x="9.999999999999773" y="240.0000000000001" width="120" height="60" as="geometry" />
        </mxCell>
        <mxCell id="4O4UCcZYAwytdxUnZMrr-379" value="" style="edgeStyle=orthogonalEdgeStyle;rounded=0;orthogonalLoop=1;jettySize=auto;html=1;" edge="1" parent="1" source="44" target="4O4UCcZYAwytdxUnZMrr-249">
          <mxGeometry relative="1" as="geometry" />
        </mxCell>
        <mxCell id="44" value="2.4 Definir presupuesto" style="whiteSpace=wrap;rounded=1;fillColor=#12AAB5;strokeColor=none;shadow=1;fontColor=#FFFFFF;fontSize=13;" vertex="1" parent="1">
          <mxGeometry x="9.999999999999773" y="480.0000000000001" width="120" height="60" as="geometry" />
        </mxCell>
        <mxCell id="45" value="2.1.1 Identificar requisitos funcionales." style="whiteSpace=wrap;rounded=1;fillColor=#999999;strokeColor=none;shadow=1;fontColor=#FFFFFF;fontStyle=0;fontSize=13;" vertex="1" parent="1">
          <mxGeometry x="149.99999999999972" y="240.0000000000001" width="120" height="60" as="geometry" />
        </mxCell>
        <mxCell id="46" value="2.1.2 Identificar requisitos no funcionales." style="whiteSpace=wrap;rounded=1;fillColor=#999999;strokeColor=none;shadow=1;fontColor=#FFFFFF;fontStyle=0;fontSize=13;" vertex="1" parent="1">
          <mxGeometry x="289.9999999999999" y="240.0000000000001" width="120" height="60" as="geometry" />
        </mxCell>
        <mxCell id="50" value="2.4.1 Calcular costos de herramientas y software." style="whiteSpace=wrap;rounded=1;fillColor=#999999;strokeColor=none;shadow=1;fontColor=#FFFFFF;fontStyle=0;fontSize=13;" vertex="1" parent="1">
          <mxGeometry x="149.99999999999932" y="480.0000000000001" width="120" height="60" as="geometry" />
        </mxCell>
        <mxCell id="51" value="2.4.2 Asignar recursos a tareas" style="whiteSpace=wrap;rounded=1;fillColor=#999999;strokeColor=none;shadow=1;fontColor=#FFFFFF;fontStyle=0;fontSize=13;" vertex="1" parent="1">
          <mxGeometry x="289.99999999999955" y="480.0000000000001" width="120" height="60" as="geometry" />
        </mxCell>
        <mxCell id="103" value="" style="edgeStyle=elbowEdgeStyle;elbow=vertical;rounded=0;fontColor=#000000;endArrow=none;endFill=0;strokeWidth=8;strokeColor=#23445D;" edge="1" parent="1" source="3" target="10">
          <mxGeometry width="100" height="100" relative="1" as="geometry">
            <mxPoint x="-190" y="290" as="sourcePoint" />
            <mxPoint x="-90" y="190" as="targetPoint" />
          </mxGeometry>
        </mxCell>
        <mxCell id="105" value="" style="edgeStyle=elbowEdgeStyle;elbow=horizontal;rounded=0;fontColor=#000000;endArrow=none;endFill=0;strokeWidth=8;strokeColor=#23445D;entryX=0.5;entryY=0;entryDx=0;entryDy=0;exitX=0.5;exitY=1;exitDx=0;exitDy=0;" edge="1" parent="1" source="10" target="4O4UCcZYAwytdxUnZMrr-234">
          <mxGeometry width="100" height="100" relative="1" as="geometry">
            <mxPoint x="-200" y="420" as="sourcePoint" />
            <mxPoint x="-140" y="370" as="targetPoint" />
            <Array as="points" />
          </mxGeometry>
        </mxCell>
        <mxCell id="106" value="" style="edgeStyle=elbowEdgeStyle;elbow=horizontal;rounded=0;fontColor=#000000;endArrow=none;endFill=0;strokeWidth=8;strokeColor=#23445D;entryX=0.5;entryY=0;entryDx=0;entryDy=0;exitX=0.5;exitY=1;exitDx=0;exitDy=0;" edge="1" parent="1" source="4O4UCcZYAwytdxUnZMrr-234" target="4O4UCcZYAwytdxUnZMrr-235">
          <mxGeometry width="100" height="100" relative="1" as="geometry">
            <mxPoint x="-220" y="240" as="sourcePoint" />
            <mxPoint x="-140" y="450" as="targetPoint" />
            <Array as="points">
              <mxPoint x="-80" y="410" />
            </Array>
          </mxGeometry>
        </mxCell>
        <mxCell id="110" value="" style="edgeStyle=elbowEdgeStyle;elbow=horizontal;rounded=0;fontColor=#000000;endArrow=none;endFill=0;strokeWidth=8;strokeColor=#23445D;entryX=0.5;entryY=0;entryDx=0;entryDy=0;exitX=0.5;exitY=1;exitDx=0;exitDy=0;" edge="1" parent="1" source="4O4UCcZYAwytdxUnZMrr-235" target="4O4UCcZYAwytdxUnZMrr-236">
          <mxGeometry width="100" height="100" relative="1" as="geometry">
            <mxPoint x="-220" y="460" as="sourcePoint" />
            <mxPoint x="-220" y="530" as="targetPoint" />
            <Array as="points">
              <mxPoint x="-80" y="490" />
            </Array>
          </mxGeometry>
        </mxCell>
        <mxCell id="116" value="" style="edgeStyle=elbowEdgeStyle;elbow=vertical;rounded=0;fontColor=#000000;endArrow=none;endFill=0;strokeWidth=8;strokeColor=#23445D;" edge="1" parent="1" source="4" target="43">
          <mxGeometry width="100" height="100" relative="1" as="geometry">
            <mxPoint x="160" y="239.99999999999977" as="sourcePoint" />
            <mxPoint x="60" y="310" as="targetPoint" />
          </mxGeometry>
        </mxCell>
        <mxCell id="133" value="3.1 Configuración del entorno de desarrollo" style="whiteSpace=wrap;rounded=1;fillColor=#12AAB5;strokeColor=none;shadow=1;fontColor=#FFFFFF;fontSize=13;" vertex="1" parent="1">
          <mxGeometry x="419.9999999999998" y="240.0000000000001" width="120" height="60" as="geometry" />
        </mxCell>
        <mxCell id="134" value="3.2 Diseño de la base de datos" style="whiteSpace=wrap;rounded=1;fillColor=#12AAB5;strokeColor=none;shadow=1;fontColor=#FFFFFF;fontSize=13;" vertex="1" parent="1">
          <mxGeometry x="419.9999999999998" y="320.0000000000001" width="120" height="60" as="geometry" />
        </mxCell>
        <mxCell id="135" value="3.1.1 Instalación de herramientas y dependencias" style="whiteSpace=wrap;rounded=1;fillColor=#999999;strokeColor=none;shadow=1;fontColor=#FFFFFF;fontStyle=0;fontSize=13;" vertex="1" parent="1">
          <mxGeometry x="559.9999999999998" y="240.0000000000001" width="120" height="60" as="geometry" />
        </mxCell>
        <mxCell id="136" value="3.1.2 Configuración de entornos de prueba y producción" style="whiteSpace=wrap;rounded=1;fillColor=#999999;strokeColor=none;shadow=1;fontColor=#FFFFFF;fontStyle=0;fontSize=13;" vertex="1" parent="1">
          <mxGeometry x="699.9999999999999" y="240.0000000000001" width="120" height="60" as="geometry" />
        </mxCell>
        <mxCell id="140" value="3.2.1 Creación de tablas y relaciones" style="whiteSpace=wrap;rounded=1;fillColor=#999999;strokeColor=none;shadow=1;fontColor=#FFFFFF;fontStyle=0;fontSize=13;" vertex="1" parent="1">
          <mxGeometry x="559.9999999999993" y="320.0000000000001" width="120" height="60" as="geometry" />
        </mxCell>
        <mxCell id="141" value="3.2.2 Implementación de triggers y procedimientos almacenados" style="whiteSpace=wrap;rounded=1;fillColor=#999999;strokeColor=none;shadow=1;fontColor=#FFFFFF;fontStyle=0;fontSize=12;" vertex="1" parent="1">
          <mxGeometry x="699.9999999999995" y="320.0000000000001" width="120" height="60" as="geometry" />
        </mxCell>
        <mxCell id="145" value="" style="edgeStyle=elbowEdgeStyle;elbow=horizontal;rounded=0;fontColor=#000000;endArrow=none;endFill=0;strokeWidth=8;strokeColor=#23445D;exitX=1;exitY=0.5;exitDx=0;exitDy=0;entryX=0;entryY=0.5;entryDx=0;entryDy=0;" edge="1" parent="1" source="133" target="135">
          <mxGeometry width="100" height="100" relative="1" as="geometry">
            <mxPoint x="450" y="330.00000000000045" as="sourcePoint" />
            <mxPoint x="550" y="300" as="targetPoint" />
            <Array as="points" />
          </mxGeometry>
        </mxCell>
        <mxCell id="146" value="" style="edgeStyle=elbowEdgeStyle;elbow=horizontal;rounded=0;fontColor=#000000;endArrow=none;endFill=0;strokeWidth=8;strokeColor=#23445D;exitX=1;exitY=0.5;exitDx=0;exitDy=0;entryX=0;entryY=0.5;entryDx=0;entryDy=0;" edge="1" parent="1" source="135" target="136">
          <mxGeometry width="100" height="100" relative="1" as="geometry">
            <mxPoint x="460" y="330" as="sourcePoint" />
            <mxPoint x="459.9999999999998" y="510" as="targetPoint" />
            <Array as="points" />
          </mxGeometry>
        </mxCell>
        <mxCell id="150" value="" style="edgeStyle=elbowEdgeStyle;elbow=horizontal;rounded=0;fontColor=#000000;endArrow=none;endFill=0;strokeWidth=8;strokeColor=#23445D;exitX=1;exitY=0.5;exitDx=0;exitDy=0;" edge="1" parent="1" source="134" target="140">
          <mxGeometry width="100" height="100" relative="1" as="geometry">
            <mxPoint x="410" y="340.00000000000045" as="sourcePoint" />
            <mxPoint x="419.99999999999955" y="440" as="targetPoint" />
            <Array as="points">
              <mxPoint x="580" y="350" />
            </Array>
          </mxGeometry>
        </mxCell>
        <mxCell id="151" value="" style="edgeStyle=elbowEdgeStyle;elbow=horizontal;rounded=0;fontColor=#000000;endArrow=none;endFill=0;strokeWidth=8;strokeColor=#23445D;exitX=1;exitY=0.5;exitDx=0;exitDy=0;" edge="1" parent="1" source="140" target="141">
          <mxGeometry width="100" height="100" relative="1" as="geometry">
            <mxPoint x="420" y="340" as="sourcePoint" />
            <mxPoint x="419.9999999999998" y="520" as="targetPoint" />
            <Array as="points">
              <mxPoint x="710" y="350" />
            </Array>
          </mxGeometry>
        </mxCell>
        <mxCell id="155" value="4.1 Pruebas unitarias y de integración" style="whiteSpace=wrap;rounded=1;fillColor=#12AAB5;strokeColor=none;shadow=1;fontColor=#FFFFFF;fontSize=13;" vertex="1" parent="1">
          <mxGeometry x="969.9999999999998" y="240.00000000000023" width="120" height="60" as="geometry" />
        </mxCell>
        <mxCell id="156" value="4.2 Pruebas funcionales" style="whiteSpace=wrap;rounded=1;fillColor=#12AAB5;strokeColor=none;shadow=1;fontColor=#FFFFFF;fontSize=13;" vertex="1" parent="1">
          <mxGeometry x="970" y="320.0000000000002" width="120" height="60" as="geometry" />
        </mxCell>
        <mxCell id="157" value="4.1.1 Pruebas de modelos y vistas en Django" style="whiteSpace=wrap;rounded=1;fillColor=#999999;strokeColor=none;shadow=1;fontColor=#FFFFFF;fontStyle=0;fontSize=13;" vertex="1" parent="1">
          <mxGeometry x="1109.9999999999998" y="240.00000000000023" width="120" height="60" as="geometry" />
        </mxCell>
        <mxCell id="158" value="4.1.2 Pruebas de lógica de simulación y predicción" style="whiteSpace=wrap;rounded=1;fillColor=#999999;strokeColor=none;shadow=1;fontColor=#FFFFFF;fontStyle=0;fontSize=13;" vertex="1" parent="1">
          <mxGeometry x="1250" y="240.00000000000023" width="120" height="60" as="geometry" />
        </mxCell>
        <mxCell id="162" value="4.2.1 Validación del flujo de usuario y accesibilidad" style="whiteSpace=wrap;rounded=1;fillColor=#999999;strokeColor=none;shadow=1;fontColor=#FFFFFF;fontStyle=0;fontSize=13;" vertex="1" parent="1">
          <mxGeometry x="1109.999999999999" y="320.0000000000002" width="120" height="60" as="geometry" />
        </mxCell>
        <mxCell id="163" value="4.2.2 Pruebas de filtros." style="whiteSpace=wrap;rounded=1;fillColor=#999999;strokeColor=none;shadow=1;fontColor=#FFFFFF;fontStyle=0;fontSize=13;" vertex="1" parent="1">
          <mxGeometry x="1249.9999999999995" y="320.0000000000002" width="120" height="60" as="geometry" />
        </mxCell>
        <mxCell id="167" value="" style="edgeStyle=elbowEdgeStyle;elbow=horizontal;rounded=0;fontColor=#000000;endArrow=none;endFill=0;strokeWidth=8;strokeColor=#23445D;entryX=0;entryY=0.5;entryDx=0;entryDy=0;exitX=1;exitY=0.5;exitDx=0;exitDy=0;" edge="1" parent="1" source="155" target="157">
          <mxGeometry width="100" height="100" relative="1" as="geometry">
            <mxPoint x="1600" y="320.00000000000057" as="sourcePoint" />
            <mxPoint x="1609.9999999999995" y="420.0000000000001" as="targetPoint" />
            <Array as="points" />
          </mxGeometry>
        </mxCell>
        <mxCell id="168" value="" style="edgeStyle=elbowEdgeStyle;elbow=horizontal;rounded=0;fontColor=#000000;endArrow=none;endFill=0;strokeWidth=8;strokeColor=#23445D;exitX=1;exitY=0.5;exitDx=0;exitDy=0;entryX=0;entryY=0.5;entryDx=0;entryDy=0;" edge="1" parent="1" source="157" target="158">
          <mxGeometry width="100" height="100" relative="1" as="geometry">
            <mxPoint x="1610" y="320.0000000000001" as="sourcePoint" />
            <mxPoint x="1609.9999999999998" y="500.0000000000001" as="targetPoint" />
            <Array as="points" />
          </mxGeometry>
        </mxCell>
        <mxCell id="172" value="" style="edgeStyle=elbowEdgeStyle;elbow=horizontal;rounded=0;fontColor=#000000;endArrow=none;endFill=0;strokeWidth=8;strokeColor=#23445D;exitX=1;exitY=0.5;exitDx=0;exitDy=0;entryX=0;entryY=0.5;entryDx=0;entryDy=0;" edge="1" parent="1" source="156" target="162">
          <mxGeometry width="100" height="100" relative="1" as="geometry">
            <mxPoint x="1760" y="320.00000000000057" as="sourcePoint" />
            <mxPoint x="1769.9999999999995" y="420.0000000000001" as="targetPoint" />
            <Array as="points">
              <mxPoint x="1110" y="350" />
            </Array>
          </mxGeometry>
        </mxCell>
        <mxCell id="173" value="" style="edgeStyle=elbowEdgeStyle;elbow=horizontal;rounded=0;fontColor=#000000;endArrow=none;endFill=0;strokeWidth=8;strokeColor=#23445D;exitX=1;exitY=0.5;exitDx=0;exitDy=0;entryX=0;entryY=0.5;entryDx=0;entryDy=0;" edge="1" parent="1" source="162" target="163">
          <mxGeometry width="100" height="100" relative="1" as="geometry">
            <mxPoint x="1299.999999999999" y="570.0000000000002" as="sourcePoint" />
            <mxPoint x="1730" y="660.0000000000002" as="targetPoint" />
            <Array as="points">
              <mxPoint x="1250" y="350" />
              <mxPoint x="1650" y="500.0000000000001" />
            </Array>
          </mxGeometry>
        </mxCell>
        <mxCell id="177" value="5.1 Preparación del entorno de producción" style="whiteSpace=wrap;rounded=1;fillColor=#12AAB5;strokeColor=none;shadow=1;fontColor=#FFFFFF;fontSize=13;" vertex="1" parent="1">
          <mxGeometry x="1380" y="239.9999999999999" width="120" height="60" as="geometry" />
        </mxCell>
        <mxCell id="178" value="5.2 Migración de datos de prueba" style="whiteSpace=wrap;rounded=1;fillColor=#12AAB5;strokeColor=none;shadow=1;fontColor=#FFFFFF;fontSize=13;" vertex="1" parent="1">
          <mxGeometry x="1380" y="319.9999999999999" width="120" height="60" as="geometry" />
        </mxCell>
        <mxCell id="179" value="5.1.1 Configuración de base de datos en producción" style="whiteSpace=wrap;rounded=1;fillColor=#999999;strokeColor=none;shadow=1;fontColor=#FFFFFF;fontStyle=0;fontSize=13;" vertex="1" parent="1">
          <mxGeometry x="1520" y="239.9999999999999" width="120" height="60" as="geometry" />
        </mxCell>
        <mxCell id="180" value="5.1.2 Configuración de servidores y dominio" style="whiteSpace=wrap;rounded=1;fillColor=#999999;strokeColor=none;shadow=1;fontColor=#FFFFFF;fontStyle=0;fontSize=13;" vertex="1" parent="1">
          <mxGeometry x="1660" y="239.9999999999999" width="120" height="60" as="geometry" />
        </mxCell>
        <mxCell id="189" value="" style="edgeStyle=elbowEdgeStyle;elbow=horizontal;rounded=0;fontColor=#000000;endArrow=none;endFill=0;strokeWidth=8;strokeColor=#23445D;entryX=0;entryY=0.5;entryDx=0;entryDy=0;" edge="1" parent="1" source="177" target="179">
          <mxGeometry width="100" height="100" relative="1" as="geometry">
            <mxPoint x="2338" y="320.0000000000002" as="sourcePoint" />
            <mxPoint x="2347.9999999999995" y="419.9999999999998" as="targetPoint" />
            <Array as="points" />
          </mxGeometry>
        </mxCell>
        <mxCell id="190" value="" style="edgeStyle=elbowEdgeStyle;elbow=horizontal;rounded=0;fontColor=#000000;endArrow=none;endFill=0;strokeWidth=8;strokeColor=#23445D;exitX=1;exitY=0.5;exitDx=0;exitDy=0;entryX=0;entryY=0.5;entryDx=0;entryDy=0;" edge="1" parent="1" source="179" target="180">
          <mxGeometry width="100" height="100" relative="1" as="geometry">
            <mxPoint x="2348" y="319.9999999999998" as="sourcePoint" />
            <mxPoint x="2348" y="499.9999999999998" as="targetPoint" />
            <Array as="points" />
          </mxGeometry>
        </mxCell>
        <mxCell id="199" value="6.1 Documentación final" style="whiteSpace=wrap;rounded=1;fillColor=#12AAB5;strokeColor=none;shadow=1;fontColor=#FFFFFF;fontSize=13;" vertex="1" parent="1">
          <mxGeometry x="1790" y="239.99999999999972" width="120" height="60" as="geometry" />
        </mxCell>
        <mxCell id="200" value="6.2 Evaluación de cumplimiento de objetivos" style="whiteSpace=wrap;rounded=1;fillColor=#12AAB5;strokeColor=none;shadow=1;fontColor=#FFFFFF;fontSize=13;" vertex="1" parent="1">
          <mxGeometry x="1790" y="319.9999999999997" width="120" height="60" as="geometry" />
        </mxCell>
        <mxCell id="201" value="6.1.1 Documentación de arquitectura y código" style="whiteSpace=wrap;rounded=1;fillColor=#999999;strokeColor=none;shadow=1;fontColor=#FFFFFF;fontStyle=0;fontSize=13;" vertex="1" parent="1">
          <mxGeometry x="1930" y="239.99999999999972" width="120" height="60" as="geometry" />
        </mxCell>
        <mxCell id="202" value="6.1.2 Documentación de usuario y manuales de uso" style="whiteSpace=wrap;rounded=1;fillColor=#999999;strokeColor=none;shadow=1;fontColor=#FFFFFF;fontStyle=0;fontSize=13;" vertex="1" parent="1">
          <mxGeometry x="2070" y="239.99999999999972" width="120" height="60" as="geometry" />
        </mxCell>
        <mxCell id="211" value="" style="edgeStyle=elbowEdgeStyle;elbow=horizontal;rounded=0;fontColor=#000000;endArrow=none;endFill=0;strokeWidth=8;strokeColor=#23445D;entryX=0;entryY=0.5;entryDx=0;entryDy=0;exitX=1;exitY=0.5;exitDx=0;exitDy=0;" edge="1" parent="1" source="199" target="201">
          <mxGeometry width="100" height="100" relative="1" as="geometry">
            <mxPoint x="2160" y="350.00000000000006" as="sourcePoint" />
            <mxPoint x="2169.9999999999995" y="449.9999999999996" as="targetPoint" />
            <Array as="points" />
          </mxGeometry>
        </mxCell>
        <mxCell id="212" value="" style="edgeStyle=elbowEdgeStyle;elbow=horizontal;rounded=0;fontColor=#000000;endArrow=none;endFill=0;strokeWidth=8;strokeColor=#23445D;exitX=1;exitY=0.5;exitDx=0;exitDy=0;entryX=0;entryY=0.5;entryDx=0;entryDy=0;" edge="1" parent="1" source="201" target="202">
          <mxGeometry width="100" height="100" relative="1" as="geometry">
            <mxPoint x="2170" y="349.9999999999996" as="sourcePoint" />
            <mxPoint x="2510" y="530" as="targetPoint" />
            <Array as="points" />
          </mxGeometry>
        </mxCell>
        <mxCell id="221" value="" style="edgeStyle=elbowEdgeStyle;elbow=vertical;rounded=0;fontColor=#000000;endArrow=none;endFill=0;strokeWidth=8;strokeColor=#23445D;exitX=0.5;exitY=1;exitDx=0;exitDy=0;" edge="1" parent="1" source="6" target="133">
          <mxGeometry width="100" height="100" relative="1" as="geometry">
            <mxPoint x="870" y="219.99999999999977" as="sourcePoint" />
            <mxPoint x="540" y="170" as="targetPoint" />
          </mxGeometry>
        </mxCell>
        <mxCell id="223" value="" style="edgeStyle=elbowEdgeStyle;elbow=vertical;rounded=0;fontColor=#000000;endArrow=none;endFill=0;strokeWidth=8;strokeColor=#23445D;exitX=0.5;exitY=1;exitDx=0;exitDy=0;" edge="1" parent="1" source="7" target="155">
          <mxGeometry width="100" height="100" relative="1" as="geometry">
            <mxPoint x="1040" y="219.99999999999977" as="sourcePoint" />
            <mxPoint x="1800" y="180" as="targetPoint" />
          </mxGeometry>
        </mxCell>
        <mxCell id="224" value="" style="edgeStyle=elbowEdgeStyle;elbow=vertical;rounded=0;fontColor=#000000;endArrow=none;endFill=0;strokeWidth=8;strokeColor=#23445D;exitX=0.5;exitY=1;exitDx=0;exitDy=0;entryX=0.5;entryY=0;entryDx=0;entryDy=0;" edge="1" parent="1" source="155" target="156">
          <mxGeometry width="100" height="100" relative="1" as="geometry">
            <mxPoint x="1430" y="330" as="sourcePoint" />
            <mxPoint x="2090" y="180" as="targetPoint" />
            <Array as="points">
              <mxPoint x="1040" y="310" />
            </Array>
          </mxGeometry>
        </mxCell>
        <mxCell id="225" value="" style="edgeStyle=elbowEdgeStyle;elbow=vertical;rounded=0;fontColor=#000000;endArrow=none;endFill=0;strokeWidth=8;strokeColor=#23445D;" edge="1" parent="1" source="8" target="177">
          <mxGeometry width="100" height="100" relative="1" as="geometry">
            <mxPoint x="2358" y="280" as="sourcePoint" />
            <mxPoint x="2458" y="180" as="targetPoint" />
          </mxGeometry>
        </mxCell>
        <mxCell id="226" value="" style="edgeStyle=elbowEdgeStyle;elbow=vertical;rounded=0;fontColor=#000000;endArrow=none;endFill=0;strokeWidth=8;strokeColor=#23445D;exitX=0.5;exitY=1;exitDx=0;exitDy=0;" edge="1" parent="1" source="177" target="178">
          <mxGeometry width="100" height="100" relative="1" as="geometry">
            <mxPoint x="1960" y="380" as="sourcePoint" />
            <mxPoint x="2688" y="180" as="targetPoint" />
          </mxGeometry>
        </mxCell>
        <mxCell id="227" value="" style="edgeStyle=elbowEdgeStyle;elbow=vertical;rounded=0;fontColor=#000000;endArrow=none;endFill=0;strokeWidth=8;strokeColor=#23445D;" edge="1" parent="1" source="5" target="199">
          <mxGeometry width="100" height="100" relative="1" as="geometry">
            <mxPoint x="2210" y="310" as="sourcePoint" />
            <mxPoint x="2310" y="210" as="targetPoint" />
          </mxGeometry>
        </mxCell>
        <mxCell id="228" value="" style="edgeStyle=elbowEdgeStyle;elbow=vertical;rounded=0;fontColor=#000000;endArrow=none;endFill=0;strokeWidth=8;strokeColor=#23445D;exitX=0.5;exitY=1;exitDx=0;exitDy=0;entryX=0.5;entryY=0;entryDx=0;entryDy=0;" edge="1" parent="1" source="199" target="200">
          <mxGeometry width="100" height="100" relative="1" as="geometry">
            <mxPoint x="2380" y="260" as="sourcePoint" />
            <mxPoint x="2570" y="210" as="targetPoint" />
            <Array as="points">
              <mxPoint x="1850" y="320" />
            </Array>
          </mxGeometry>
        </mxCell>
        <mxCell id="229" value="" style="edgeStyle=elbowEdgeStyle;elbow=vertical;rounded=0;fontColor=#000000;endArrow=none;endFill=0;strokeWidth=8;strokeColor=#23445D;" edge="1" parent="1" source="2" target="3">
          <mxGeometry width="100" height="100" relative="1" as="geometry">
            <mxPoint x="540" y="140" as="sourcePoint" />
            <mxPoint x="640" y="40" as="targetPoint" />
          </mxGeometry>
        </mxCell>
        <mxCell id="230" value="" style="edgeStyle=elbowEdgeStyle;elbow=vertical;rounded=0;fontColor=#000000;endArrow=none;endFill=0;strokeWidth=8;strokeColor=#23445D;" edge="1" parent="1" source="2" target="4">
          <mxGeometry width="100" height="100" relative="1" as="geometry">
            <mxPoint x="550" y="150" as="sourcePoint" />
            <mxPoint x="650" y="50" as="targetPoint" />
          </mxGeometry>
        </mxCell>
        <mxCell id="231" value="" style="edgeStyle=elbowEdgeStyle;elbow=vertical;rounded=0;fontColor=#000000;endArrow=none;endFill=0;strokeWidth=8;strokeColor=#23445D;" edge="1" parent="1" source="2" target="6">
          <mxGeometry width="100" height="100" relative="1" as="geometry">
            <mxPoint x="560" y="160" as="sourcePoint" />
            <mxPoint x="660" y="60" as="targetPoint" />
          </mxGeometry>
        </mxCell>
        <mxCell id="232" value="" style="edgeStyle=elbowEdgeStyle;elbow=vertical;rounded=0;fontColor=#000000;endArrow=none;endFill=0;strokeWidth=8;strokeColor=#23445D;" edge="1" parent="1" source="2" target="7">
          <mxGeometry width="100" height="100" relative="1" as="geometry">
            <mxPoint x="570" y="170" as="sourcePoint" />
            <mxPoint x="670" y="70" as="targetPoint" />
          </mxGeometry>
        </mxCell>
        <mxCell id="233" value="" style="edgeStyle=elbowEdgeStyle;elbow=vertical;rounded=0;fontColor=#000000;endArrow=none;endFill=0;strokeWidth=8;strokeColor=#23445D;" edge="1" parent="1" source="2" target="8">
          <mxGeometry width="100" height="100" relative="1" as="geometry">
            <mxPoint x="580" y="180" as="sourcePoint" />
            <mxPoint x="680" y="80" as="targetPoint" />
          </mxGeometry>
        </mxCell>
        <mxCell id="234" value="" style="edgeStyle=elbowEdgeStyle;elbow=vertical;rounded=0;fontColor=#000000;endArrow=none;endFill=0;strokeWidth=8;strokeColor=#23445D;" edge="1" parent="1" source="2" target="5">
          <mxGeometry width="100" height="100" relative="1" as="geometry">
            <mxPoint x="590" y="190" as="sourcePoint" />
            <mxPoint x="690" y="90" as="targetPoint" />
          </mxGeometry>
        </mxCell>
        <mxCell id="4O4UCcZYAwytdxUnZMrr-234" value="1.2 Identificar stakeholders y roles" style="whiteSpace=wrap;rounded=1;fillColor=#12AAB5;strokeColor=none;shadow=1;fontColor=#FFFFFF;fontSize=13;" vertex="1" parent="1">
          <mxGeometry x="-140" y="320.0000000000001" width="120" height="60" as="geometry" />
        </mxCell>
        <mxCell id="4O4UCcZYAwytdxUnZMrr-235" value="1.3 Realizar estudio de viabilidad técnica y económica" style="whiteSpace=wrap;rounded=1;fillColor=#12AAB5;strokeColor=none;shadow=1;fontColor=#FFFFFF;fontSize=13;" vertex="1" parent="1">
          <mxGeometry x="-140" y="400.0000000000001" width="120" height="60" as="geometry" />
        </mxCell>
        <mxCell id="4O4UCcZYAwytdxUnZMrr-236" value="1.4 Aprobar la carta de proyecto" style="whiteSpace=wrap;rounded=1;fillColor=#12AAB5;strokeColor=none;shadow=1;fontColor=#FFFFFF;fontSize=13;" vertex="1" parent="1">
          <mxGeometry x="-140" y="480.0000000000001" width="120" height="60" as="geometry" />
        </mxCell>
        <mxCell id="4O4UCcZYAwytdxUnZMrr-237" value="2.3 Realizar análisis de riesgos" style="whiteSpace=wrap;rounded=1;fillColor=#12AAB5;strokeColor=none;shadow=1;fontColor=#FFFFFF;fontSize=13;" vertex="1" parent="1">
          <mxGeometry x="9.999999999999773" y="400.0000000000001" width="120" height="60" as="geometry" />
        </mxCell>
        <mxCell id="4O4UCcZYAwytdxUnZMrr-238" value="2.3.1 Identificar posibles riesgos." style="whiteSpace=wrap;rounded=1;fillColor=#999999;strokeColor=none;shadow=1;fontColor=#FFFFFF;fontStyle=0;fontSize=13;" vertex="1" parent="1">
          <mxGeometry x="149.99999999999932" y="400.0000000000001" width="120" height="60" as="geometry" />
        </mxCell>
        <mxCell id="4O4UCcZYAwytdxUnZMrr-239" value="2.3.2 Planificar estrategias de mitigación" style="whiteSpace=wrap;rounded=1;fillColor=#999999;strokeColor=none;shadow=1;fontColor=#FFFFFF;fontStyle=0;fontSize=13;" vertex="1" parent="1">
          <mxGeometry x="289.99999999999955" y="400.0000000000001" width="120" height="60" as="geometry" />
        </mxCell>
        <mxCell id="4O4UCcZYAwytdxUnZMrr-243" value="" style="edgeStyle=elbowEdgeStyle;elbow=horizontal;rounded=0;fontColor=#000000;endArrow=none;endFill=0;strokeWidth=8;strokeColor=#23445D;exitX=1;exitY=0.5;exitDx=0;exitDy=0;entryX=0;entryY=0.5;entryDx=0;entryDy=0;" edge="1" parent="1" source="4O4UCcZYAwytdxUnZMrr-237" target="4O4UCcZYAwytdxUnZMrr-238">
          <mxGeometry width="100" height="100" relative="1" as="geometry">
            <mxPoint x="250" y="310.00000000000045" as="sourcePoint" />
            <mxPoint x="150" y="430" as="targetPoint" />
            <Array as="points" />
          </mxGeometry>
        </mxCell>
        <mxCell id="4O4UCcZYAwytdxUnZMrr-244" value="" style="edgeStyle=elbowEdgeStyle;elbow=horizontal;rounded=0;fontColor=#000000;endArrow=none;endFill=0;strokeWidth=8;strokeColor=#23445D;entryX=0;entryY=0.5;entryDx=0;entryDy=0;exitX=1;exitY=0.5;exitDx=0;exitDy=0;" edge="1" parent="1" source="4O4UCcZYAwytdxUnZMrr-238" target="4O4UCcZYAwytdxUnZMrr-239">
          <mxGeometry width="100" height="100" relative="1" as="geometry">
            <mxPoint x="260" y="310" as="sourcePoint" />
            <mxPoint x="259.9999999999998" y="490" as="targetPoint" />
            <Array as="points" />
          </mxGeometry>
        </mxCell>
        <mxCell id="4O4UCcZYAwytdxUnZMrr-250" value="2.2.1 Establecer hitos principales" style="whiteSpace=wrap;rounded=1;fillColor=#999999;strokeColor=none;shadow=1;fontColor=#FFFFFF;fontStyle=0;fontSize=13;" vertex="1" parent="1">
          <mxGeometry x="149.99999999999932" y="320.0000000000001" width="120" height="60" as="geometry" />
        </mxCell>
        <mxCell id="4O4UCcZYAwytdxUnZMrr-251" value="2.2.2 Asignar tiempos estimados a cada fase y tarea" style="whiteSpace=wrap;rounded=1;fillColor=#999999;strokeColor=none;shadow=1;fontColor=#FFFFFF;fontStyle=0;fontSize=13;" vertex="1" parent="1">
          <mxGeometry x="289.99999999999955" y="320.0000000000001" width="120" height="60" as="geometry" />
        </mxCell>
        <mxCell id="4O4UCcZYAwytdxUnZMrr-255" value="" style="edgeStyle=elbowEdgeStyle;elbow=horizontal;rounded=0;fontColor=#000000;endArrow=none;endFill=0;strokeWidth=8;strokeColor=#23445D;entryX=0;entryY=0.5;entryDx=0;entryDy=0;exitX=1;exitY=0.5;exitDx=0;exitDy=0;" edge="1" parent="1" source="4O4UCcZYAwytdxUnZMrr-249" target="4O4UCcZYAwytdxUnZMrr-250">
          <mxGeometry width="100" height="100" relative="1" as="geometry">
            <mxPoint x="110" y="300.00000000000045" as="sourcePoint" />
            <mxPoint x="119.99999999999955" y="400" as="targetPoint" />
            <Array as="points" />
          </mxGeometry>
        </mxCell>
        <mxCell id="4O4UCcZYAwytdxUnZMrr-256" value="" style="edgeStyle=elbowEdgeStyle;elbow=horizontal;rounded=0;fontColor=#000000;endArrow=none;endFill=0;strokeWidth=8;strokeColor=#23445D;entryX=0;entryY=0.5;entryDx=0;entryDy=0;exitX=1;exitY=0.5;exitDx=0;exitDy=0;" edge="1" parent="1" source="4O4UCcZYAwytdxUnZMrr-250" target="4O4UCcZYAwytdxUnZMrr-251">
          <mxGeometry width="100" height="100" relative="1" as="geometry">
            <mxPoint x="120" y="300" as="sourcePoint" />
            <mxPoint x="119.99999999999977" y="480" as="targetPoint" />
            <Array as="points" />
          </mxGeometry>
        </mxCell>
        <mxCell id="4O4UCcZYAwytdxUnZMrr-262" value="3.3 Desarrollo del backend" style="whiteSpace=wrap;rounded=1;fillColor=#12AAB5;strokeColor=none;shadow=1;fontColor=#FFFFFF;fontSize=13;" vertex="1" parent="1">
          <mxGeometry x="419.9999999999998" y="400.0000000000001" width="120" height="60" as="geometry" />
        </mxCell>
        <mxCell id="4O4UCcZYAwytdxUnZMrr-263" value="3.3.1 Configuración de modelos y vistas en Django" style="whiteSpace=wrap;rounded=1;fillColor=#999999;strokeColor=none;shadow=1;fontColor=#FFFFFF;fontStyle=0;fontSize=13;" vertex="1" parent="1">
          <mxGeometry x="559.9999999999993" y="400.0000000000001" width="120" height="60" as="geometry" />
        </mxCell>
        <mxCell id="4O4UCcZYAwytdxUnZMrr-264" value="3.3.2 Implementación del sistema de autenticación y permisos de usuario" style="whiteSpace=wrap;rounded=1;fillColor=#999999;strokeColor=none;shadow=1;fontColor=#FFFFFF;fontStyle=0" vertex="1" parent="1">
          <mxGeometry x="699.9999999999995" y="400.0000000000001" width="120" height="60" as="geometry" />
        </mxCell>
        <mxCell id="4O4UCcZYAwytdxUnZMrr-265" value="3.3.3 Desarrollo de lógica de simulación de stock y cálculo de métricas" style="whiteSpace=wrap;rounded=1;fillColor=#999999;strokeColor=none;shadow=1;fontColor=#FFFFFF;fontStyle=0" vertex="1" parent="1">
          <mxGeometry x="839.9999999999995" y="400.0000000000001" width="120" height="60" as="geometry" />
        </mxCell>
        <mxCell id="4O4UCcZYAwytdxUnZMrr-272" value="" style="edgeStyle=elbowEdgeStyle;elbow=horizontal;rounded=0;fontColor=#000000;endArrow=none;endFill=0;strokeWidth=8;strokeColor=#23445D;exitX=1;exitY=0.5;exitDx=0;exitDy=0;entryX=0;entryY=0.5;entryDx=0;entryDy=0;" edge="1" parent="1" source="4O4UCcZYAwytdxUnZMrr-262" target="4O4UCcZYAwytdxUnZMrr-263">
          <mxGeometry width="100" height="100" relative="1" as="geometry">
            <mxPoint x="800" y="490.0000000000002" as="sourcePoint" />
            <mxPoint x="779.9999999999998" y="740" as="targetPoint" />
            <Array as="points" />
          </mxGeometry>
        </mxCell>
        <mxCell id="4O4UCcZYAwytdxUnZMrr-273" value="3.4 Desarrollo del frontend" style="whiteSpace=wrap;rounded=1;fillColor=#12AAB5;strokeColor=none;shadow=1;fontColor=#FFFFFF;fontSize=13;" vertex="1" parent="1">
          <mxGeometry x="419.9999999999998" y="480.0000000000001" width="120" height="60" as="geometry" />
        </mxCell>
        <mxCell id="4O4UCcZYAwytdxUnZMrr-274" value="3.4.1 Diseño de interfaces de usuario" style="whiteSpace=wrap;rounded=1;fillColor=#999999;strokeColor=none;shadow=1;fontColor=#FFFFFF;fontStyle=0;fontSize=13;" vertex="1" parent="1">
          <mxGeometry x="559.9999999999993" y="480.0000000000001" width="120" height="60" as="geometry" />
        </mxCell>
        <mxCell id="4O4UCcZYAwytdxUnZMrr-275" value="3.4.2 Implementación de filtros de visualización de datos" style="whiteSpace=wrap;rounded=1;fillColor=#999999;strokeColor=none;shadow=1;fontColor=#FFFFFF;fontStyle=0;fontSize=12;" vertex="1" parent="1">
          <mxGeometry x="699.9999999999995" y="480.0000000000001" width="120" height="60" as="geometry" />
        </mxCell>
        <mxCell id="4O4UCcZYAwytdxUnZMrr-276" value="3.4.3 Diseño responsivo y pruebas en dispositivos móviles" style="whiteSpace=wrap;rounded=1;fillColor=#999999;strokeColor=none;shadow=1;fontColor=#FFFFFF;fontStyle=0" vertex="1" parent="1">
          <mxGeometry x="839.9999999999995" y="480.0000000000001" width="120" height="60" as="geometry" />
        </mxCell>
        <mxCell id="4O4UCcZYAwytdxUnZMrr-279" value="" style="edgeStyle=elbowEdgeStyle;elbow=horizontal;rounded=0;fontColor=#000000;endArrow=none;endFill=0;strokeWidth=8;strokeColor=#23445D;exitX=1;exitY=0.5;exitDx=0;exitDy=0;" edge="1" parent="1" source="4O4UCcZYAwytdxUnZMrr-273" target="4O4UCcZYAwytdxUnZMrr-274">
          <mxGeometry width="100" height="100" relative="1" as="geometry">
            <mxPoint x="970" y="480.0000000000002" as="sourcePoint" />
            <mxPoint x="949.9999999999995" y="580" as="targetPoint" />
            <Array as="points">
              <mxPoint x="610" y="530" />
            </Array>
          </mxGeometry>
        </mxCell>
        <mxCell id="4O4UCcZYAwytdxUnZMrr-280" value="" style="edgeStyle=elbowEdgeStyle;elbow=horizontal;rounded=0;fontColor=#000000;endArrow=none;endFill=0;strokeWidth=8;strokeColor=#23445D;exitX=1;exitY=0.5;exitDx=0;exitDy=0;" edge="1" parent="1" source="4O4UCcZYAwytdxUnZMrr-274">
          <mxGeometry width="100" height="100" relative="1" as="geometry">
            <mxPoint x="970" y="480.0000000000002" as="sourcePoint" />
            <mxPoint x="700" y="510" as="targetPoint" />
            <Array as="points" />
          </mxGeometry>
        </mxCell>
        <mxCell id="4O4UCcZYAwytdxUnZMrr-283" value="" style="edgeStyle=elbowEdgeStyle;elbow=horizontal;rounded=0;fontColor=#000000;endArrow=none;endFill=0;strokeWidth=8;strokeColor=#23445D;exitX=1;exitY=0.5;exitDx=0;exitDy=0;entryX=0;entryY=0.5;entryDx=0;entryDy=0;" edge="1" parent="1" source="4O4UCcZYAwytdxUnZMrr-275" target="4O4UCcZYAwytdxUnZMrr-276">
          <mxGeometry width="100" height="100" relative="1" as="geometry">
            <mxPoint x="880" y="520" as="sourcePoint" />
            <mxPoint x="949.9999999999998" y="740" as="targetPoint" />
            <Array as="points">
              <mxPoint x="840" y="510" />
            </Array>
          </mxGeometry>
        </mxCell>
        <mxCell id="4O4UCcZYAwytdxUnZMrr-284" value="3.5 Implementación del módulo de predicción" style="whiteSpace=wrap;rounded=1;fillColor=#12AAB5;strokeColor=none;shadow=1;fontColor=#FFFFFF;fontSize=13;" vertex="1" parent="1">
          <mxGeometry x="419.9999999999998" y="560.0000000000001" width="120" height="60" as="geometry" />
        </mxCell>
        <mxCell id="4O4UCcZYAwytdxUnZMrr-285" value="3.5.1 Configuración del modelo predictivo en Python" style="whiteSpace=wrap;rounded=1;fillColor=#999999;strokeColor=none;shadow=1;fontColor=#FFFFFF;fontStyle=0;fontSize=13;" vertex="1" parent="1">
          <mxGeometry x="559.9999999999993" y="560.0000000000001" width="120" height="60" as="geometry" />
        </mxCell>
        <mxCell id="4O4UCcZYAwytdxUnZMrr-286" value="3.5.2 Integración de predicciones en el dashboard" style="whiteSpace=wrap;rounded=1;fillColor=#999999;strokeColor=none;shadow=1;fontColor=#FFFFFF;fontStyle=0;fontSize=13;" vertex="1" parent="1">
          <mxGeometry x="699.9999999999995" y="560.0000000000001" width="120" height="60" as="geometry" />
        </mxCell>
        <mxCell id="4O4UCcZYAwytdxUnZMrr-287" value="3.5.3 Validación de precisión y ajuste del modelo predictivo" style="whiteSpace=wrap;rounded=1;fillColor=#999999;strokeColor=none;shadow=1;fontColor=#FFFFFF;fontStyle=0" vertex="1" parent="1">
          <mxGeometry x="839.9999999999995" y="560.0000000000001" width="120" height="60" as="geometry" />
        </mxCell>
        <mxCell id="4O4UCcZYAwytdxUnZMrr-290" value="" style="edgeStyle=elbowEdgeStyle;elbow=horizontal;rounded=0;fontColor=#000000;endArrow=none;endFill=0;strokeWidth=8;strokeColor=#23445D;exitX=1;exitY=0.5;exitDx=0;exitDy=0;" edge="1" parent="1" source="4O4UCcZYAwytdxUnZMrr-284" target="4O4UCcZYAwytdxUnZMrr-285">
          <mxGeometry width="100" height="100" relative="1" as="geometry">
            <mxPoint x="800" y="580" as="sourcePoint" />
            <mxPoint x="1119.9999999999995" y="580" as="targetPoint" />
            <Array as="points" />
          </mxGeometry>
        </mxCell>
        <mxCell id="4O4UCcZYAwytdxUnZMrr-291" value="" style="edgeStyle=elbowEdgeStyle;elbow=horizontal;rounded=0;fontColor=#000000;endArrow=none;endFill=0;strokeWidth=8;strokeColor=#23445D;exitX=1;exitY=0.5;exitDx=0;exitDy=0;" edge="1" parent="1" source="4O4UCcZYAwytdxUnZMrr-285" target="4O4UCcZYAwytdxUnZMrr-286">
          <mxGeometry width="100" height="100" relative="1" as="geometry">
            <mxPoint x="930" y="660" as="sourcePoint" />
            <mxPoint x="1119.9999999999998" y="660" as="targetPoint" />
            <Array as="points" />
          </mxGeometry>
        </mxCell>
        <mxCell id="4O4UCcZYAwytdxUnZMrr-294" value="" style="edgeStyle=elbowEdgeStyle;elbow=horizontal;rounded=0;fontColor=#000000;endArrow=none;endFill=0;strokeWidth=8;strokeColor=#23445D;exitX=1;exitY=0.5;exitDx=0;exitDy=0;entryX=0;entryY=0.5;entryDx=0;entryDy=0;" edge="1" parent="1" source="4O4UCcZYAwytdxUnZMrr-286" target="4O4UCcZYAwytdxUnZMrr-287">
          <mxGeometry width="100" height="100" relative="1" as="geometry">
            <mxPoint x="1140" y="490.0000000000002" as="sourcePoint" />
            <mxPoint x="1119.9999999999998" y="740" as="targetPoint" />
            <Array as="points">
              <mxPoint x="840" y="590" />
            </Array>
          </mxGeometry>
        </mxCell>
        <mxCell id="4O4UCcZYAwytdxUnZMrr-298" value="4.3 Pruebas de rendimiento" style="whiteSpace=wrap;rounded=1;fillColor=#12AAB5;strokeColor=none;shadow=1;fontColor=#FFFFFF;fontSize=13;" vertex="1" parent="1">
          <mxGeometry x="970" y="400.0000000000002" width="120" height="60" as="geometry" />
        </mxCell>
        <mxCell id="4O4UCcZYAwytdxUnZMrr-299" value="4.3.1 Evaluación de carga en el dashboard" style="whiteSpace=wrap;rounded=1;fillColor=#999999;strokeColor=none;shadow=1;fontColor=#FFFFFF;fontStyle=0;fontSize=13;" vertex="1" parent="1">
          <mxGeometry x="1109.999999999999" y="400.0000000000002" width="120" height="60" as="geometry" />
        </mxCell>
        <mxCell id="4O4UCcZYAwytdxUnZMrr-300" value="4.3.2 Pruebas de tiempo de respuesta para consultas complejas" style="whiteSpace=wrap;rounded=1;fillColor=#999999;strokeColor=none;shadow=1;fontColor=#FFFFFF;fontStyle=0;fontSize=13;" vertex="1" parent="1">
          <mxGeometry x="1249.9999999999995" y="400.0000000000002" width="120" height="60" as="geometry" />
        </mxCell>
        <mxCell id="4O4UCcZYAwytdxUnZMrr-304" value="" style="edgeStyle=elbowEdgeStyle;elbow=horizontal;rounded=0;fontColor=#000000;endArrow=none;endFill=0;strokeWidth=8;strokeColor=#23445D;exitX=1;exitY=0.5;exitDx=0;exitDy=0;" edge="1" parent="1" source="4O4UCcZYAwytdxUnZMrr-298" target="4O4UCcZYAwytdxUnZMrr-299">
          <mxGeometry width="100" height="100" relative="1" as="geometry">
            <mxPoint x="1930" y="320.00000000000057" as="sourcePoint" />
            <mxPoint x="1939.9999999999995" y="420.0000000000001" as="targetPoint" />
            <Array as="points" />
          </mxGeometry>
        </mxCell>
        <mxCell id="4O4UCcZYAwytdxUnZMrr-305" value="" style="edgeStyle=elbowEdgeStyle;elbow=horizontal;rounded=0;fontColor=#000000;endArrow=none;endFill=0;strokeWidth=8;strokeColor=#23445D;exitX=1;exitY=0.5;exitDx=0;exitDy=0;entryX=0;entryY=0.5;entryDx=0;entryDy=0;" edge="1" parent="1" source="4O4UCcZYAwytdxUnZMrr-299" target="4O4UCcZYAwytdxUnZMrr-300">
          <mxGeometry width="100" height="100" relative="1" as="geometry">
            <mxPoint x="1940" y="320.0000000000001" as="sourcePoint" />
            <mxPoint x="1720" y="500" as="targetPoint" />
            <Array as="points" />
          </mxGeometry>
        </mxCell>
        <mxCell id="4O4UCcZYAwytdxUnZMrr-309" value="4.4 Documentación de pruebas" style="whiteSpace=wrap;rounded=1;fillColor=#12AAB5;strokeColor=none;shadow=1;fontColor=#FFFFFF;fontSize=13;" vertex="1" parent="1">
          <mxGeometry x="970" y="480.0000000000002" width="120" height="60" as="geometry" />
        </mxCell>
        <mxCell id="4O4UCcZYAwytdxUnZMrr-310" value="4.4.1 Registro de resultados de pruebas" style="whiteSpace=wrap;rounded=1;fillColor=#999999;strokeColor=none;shadow=1;fontColor=#FFFFFF;fontStyle=0;fontSize=13;" vertex="1" parent="1">
          <mxGeometry x="1109.999999999999" y="480.0000000000002" width="120" height="60" as="geometry" />
        </mxCell>
        <mxCell id="4O4UCcZYAwytdxUnZMrr-311" value="4.4.2 Registro de errores y acciones correctivas" style="whiteSpace=wrap;rounded=1;fillColor=#999999;strokeColor=none;shadow=1;fontColor=#FFFFFF;fontStyle=0;fontSize=13;" vertex="1" parent="1">
          <mxGeometry x="1249.9999999999995" y="480.0000000000002" width="120" height="60" as="geometry" />
        </mxCell>
        <mxCell id="4O4UCcZYAwytdxUnZMrr-315" value="" style="edgeStyle=elbowEdgeStyle;elbow=horizontal;rounded=0;fontColor=#000000;endArrow=none;endFill=0;strokeWidth=8;strokeColor=#23445D;" edge="1" parent="1" source="4O4UCcZYAwytdxUnZMrr-309" target="4O4UCcZYAwytdxUnZMrr-310">
          <mxGeometry width="100" height="100" relative="1" as="geometry">
            <mxPoint x="1370" y="540.0000000000006" as="sourcePoint" />
            <mxPoint x="1379.9999999999995" y="640.0000000000001" as="targetPoint" />
            <Array as="points">
              <mxPoint x="1140" y="510" />
            </Array>
          </mxGeometry>
        </mxCell>
        <mxCell id="4O4UCcZYAwytdxUnZMrr-316" value="" style="edgeStyle=elbowEdgeStyle;elbow=horizontal;rounded=0;fontColor=#000000;endArrow=none;endFill=0;strokeWidth=8;strokeColor=#23445D;exitX=1;exitY=0.5;exitDx=0;exitDy=0;entryX=0;entryY=0.5;entryDx=0;entryDy=0;" edge="1" parent="1" source="4O4UCcZYAwytdxUnZMrr-310" target="4O4UCcZYAwytdxUnZMrr-311">
          <mxGeometry width="100" height="100" relative="1" as="geometry">
            <mxPoint x="1380" y="540.0000000000001" as="sourcePoint" />
            <mxPoint x="1380" y="720.0000000000001" as="targetPoint" />
            <Array as="points" />
          </mxGeometry>
        </mxCell>
        <mxCell id="4O4UCcZYAwytdxUnZMrr-320" value="" style="edgeStyle=elbowEdgeStyle;elbow=vertical;rounded=0;fontColor=#000000;endArrow=none;endFill=0;strokeWidth=8;strokeColor=#23445D;entryX=0.5;entryY=0;entryDx=0;entryDy=0;exitX=0.5;exitY=1;exitDx=0;exitDy=0;" edge="1" parent="1" source="156" target="4O4UCcZYAwytdxUnZMrr-298">
          <mxGeometry width="100" height="100" relative="1" as="geometry">
            <mxPoint x="1630" y="270" as="sourcePoint" />
            <mxPoint x="2010" y="300" as="targetPoint" />
            <Array as="points">
              <mxPoint x="1040" y="390" />
            </Array>
          </mxGeometry>
        </mxCell>
        <mxCell id="4O4UCcZYAwytdxUnZMrr-321" value="" style="edgeStyle=elbowEdgeStyle;elbow=vertical;rounded=0;fontColor=#000000;endArrow=none;endFill=0;strokeWidth=8;strokeColor=#23445D;entryX=0.5;entryY=0;entryDx=0;entryDy=0;exitX=0.5;exitY=1;exitDx=0;exitDy=0;" edge="1" parent="1" source="4O4UCcZYAwytdxUnZMrr-298" target="4O4UCcZYAwytdxUnZMrr-309">
          <mxGeometry width="100" height="100" relative="1" as="geometry">
            <mxPoint x="1590" y="240" as="sourcePoint" />
            <mxPoint x="2389" y="260.0000000000002" as="targetPoint" />
            <Array as="points">
              <mxPoint x="1040" y="470" />
            </Array>
          </mxGeometry>
        </mxCell>
        <mxCell id="4O4UCcZYAwytdxUnZMrr-322" value="5.3 Despliegue de la aplicación en el entorno de producción" style="whiteSpace=wrap;rounded=1;fillColor=#12AAB5;strokeColor=none;shadow=1;fontColor=#FFFFFF;fontSize=13;" vertex="1" parent="1">
          <mxGeometry x="1380" y="399.9999999999999" width="120" height="60" as="geometry" />
        </mxCell>
        <mxCell id="4O4UCcZYAwytdxUnZMrr-333" value="5.4 Verificación post-despliegue" style="whiteSpace=wrap;rounded=1;fillColor=#12AAB5;strokeColor=none;shadow=1;fontColor=#FFFFFF;fontSize=13;" vertex="1" parent="1">
          <mxGeometry x="1380" y="479.9999999999999" width="120" height="60" as="geometry" />
        </mxCell>
        <mxCell id="4O4UCcZYAwytdxUnZMrr-334" value="5.4.1 Validación de la funcionalidad completa" style="whiteSpace=wrap;rounded=1;fillColor=#999999;strokeColor=none;shadow=1;fontColor=#FFFFFF;fontStyle=0;fontSize=13;" vertex="1" parent="1">
          <mxGeometry x="1519.999999999999" y="479.9999999999999" width="120" height="60" as="geometry" />
        </mxCell>
        <mxCell id="4O4UCcZYAwytdxUnZMrr-335" value="5.4.2 Validación del acceso y permisos de usuario" style="whiteSpace=wrap;rounded=1;fillColor=#999999;strokeColor=none;shadow=1;fontColor=#FFFFFF;fontStyle=0;fontSize=13;" vertex="1" parent="1">
          <mxGeometry x="1659.9999999999995" y="479.9999999999999" width="120" height="60" as="geometry" />
        </mxCell>
        <mxCell id="4O4UCcZYAwytdxUnZMrr-339" value="" style="edgeStyle=elbowEdgeStyle;elbow=horizontal;rounded=0;fontColor=#000000;endArrow=none;endFill=0;strokeWidth=8;strokeColor=#23445D;exitX=1;exitY=0.5;exitDx=0;exitDy=0;entryX=0;entryY=0.5;entryDx=0;entryDy=0;" edge="1" parent="1" source="4O4UCcZYAwytdxUnZMrr-333" target="4O4UCcZYAwytdxUnZMrr-334">
          <mxGeometry width="100" height="100" relative="1" as="geometry">
            <mxPoint x="1800" y="520" as="sourcePoint" />
            <mxPoint x="2779.9999999999995" y="419.9999999999998" as="targetPoint" />
            <Array as="points" />
          </mxGeometry>
        </mxCell>
        <mxCell id="4O4UCcZYAwytdxUnZMrr-340" value="" style="edgeStyle=elbowEdgeStyle;elbow=horizontal;rounded=0;fontColor=#000000;endArrow=none;endFill=0;strokeWidth=8;strokeColor=#23445D;exitX=1;exitY=0.5;exitDx=0;exitDy=0;" edge="1" parent="1" source="4O4UCcZYAwytdxUnZMrr-334" target="4O4UCcZYAwytdxUnZMrr-335">
          <mxGeometry width="100" height="100" relative="1" as="geometry">
            <mxPoint x="2080" y="500" as="sourcePoint" />
            <mxPoint x="2780" y="499.9999999999998" as="targetPoint" />
            <Array as="points" />
          </mxGeometry>
        </mxCell>
        <mxCell id="4O4UCcZYAwytdxUnZMrr-344" value="" style="edgeStyle=elbowEdgeStyle;elbow=vertical;rounded=0;fontColor=#000000;endArrow=none;endFill=0;strokeWidth=8;strokeColor=#23445D;entryX=0.5;entryY=0;entryDx=0;entryDy=0;exitX=0.5;exitY=1;exitDx=0;exitDy=0;" edge="1" parent="1" source="178" target="4O4UCcZYAwytdxUnZMrr-322">
          <mxGeometry width="100" height="100" relative="1" as="geometry">
            <mxPoint x="1720" y="420" as="sourcePoint" />
            <mxPoint x="2628" y="300" as="targetPoint" />
          </mxGeometry>
        </mxCell>
        <mxCell id="4O4UCcZYAwytdxUnZMrr-345" value="" style="edgeStyle=elbowEdgeStyle;elbow=vertical;rounded=0;fontColor=#000000;endArrow=none;endFill=0;strokeWidth=8;strokeColor=#23445D;entryX=0.5;entryY=0;entryDx=0;entryDy=0;exitX=0.5;exitY=1;exitDx=0;exitDy=0;" edge="1" parent="1" source="4O4UCcZYAwytdxUnZMrr-322" target="4O4UCcZYAwytdxUnZMrr-333">
          <mxGeometry width="100" height="100" relative="1" as="geometry">
            <mxPoint x="1820" y="290" as="sourcePoint" />
            <mxPoint x="2638" y="310" as="targetPoint" />
          </mxGeometry>
        </mxCell>
        <mxCell id="4O4UCcZYAwytdxUnZMrr-346" value="6.3 Revisión de lecciones aprendidas y cierre formal" style="whiteSpace=wrap;rounded=1;fillColor=#12AAB5;strokeColor=none;shadow=1;fontColor=#FFFFFF;fontSize=13;" vertex="1" parent="1">
          <mxGeometry x="1790" y="399.9999999999997" width="120" height="60" as="geometry" />
        </mxCell>
        <mxCell id="4O4UCcZYAwytdxUnZMrr-357" value="" style="edgeStyle=elbowEdgeStyle;elbow=vertical;rounded=0;fontColor=#000000;endArrow=none;endFill=0;strokeWidth=8;strokeColor=#23445D;entryX=0.5;entryY=0;entryDx=0;entryDy=0;exitX=0.5;exitY=1;exitDx=0;exitDy=0;" edge="1" parent="1" source="200" target="4O4UCcZYAwytdxUnZMrr-346">
          <mxGeometry width="100" height="100" relative="1" as="geometry">
            <mxPoint x="1930" y="390" as="sourcePoint" />
            <mxPoint x="2500" y="330" as="targetPoint" />
          </mxGeometry>
        </mxCell>
        <mxCell id="4O4UCcZYAwytdxUnZMrr-358" value="" style="edgeStyle=elbowEdgeStyle;elbow=horizontal;rounded=0;fontColor=#000000;endArrow=none;endFill=0;strokeWidth=8;strokeColor=#23445D;entryX=0.5;entryY=0;entryDx=0;entryDy=0;exitX=0.5;exitY=1;exitDx=0;exitDy=0;" edge="1" parent="1" source="43" target="4O4UCcZYAwytdxUnZMrr-249">
          <mxGeometry width="100" height="100" relative="1" as="geometry">
            <mxPoint x="60" y="300" as="sourcePoint" />
            <mxPoint x="200" y="240" as="targetPoint" />
            <Array as="points" />
          </mxGeometry>
        </mxCell>
        <mxCell id="4O4UCcZYAwytdxUnZMrr-249" value="2.2 Planificar el cronograma del proyecto" style="whiteSpace=wrap;rounded=1;fillColor=#12AAB5;strokeColor=none;shadow=1;fontColor=#FFFFFF;fontSize=13;" vertex="1" parent="1">
          <mxGeometry x="9.999999999999773" y="320.0000000000001" width="120" height="60" as="geometry" />
        </mxCell>
        <mxCell id="4O4UCcZYAwytdxUnZMrr-359" value="" style="edgeStyle=elbowEdgeStyle;elbow=horizontal;rounded=0;fontColor=#000000;endArrow=none;endFill=0;strokeWidth=8;strokeColor=#23445D;exitX=1;exitY=0.5;exitDx=0;exitDy=0;entryX=0;entryY=0.5;entryDx=0;entryDy=0;" edge="1" parent="1" source="43" target="45">
          <mxGeometry width="100" height="100" relative="1" as="geometry">
            <mxPoint x="440" y="280" as="sourcePoint" />
            <mxPoint x="630" y="280" as="targetPoint" />
            <Array as="points" />
          </mxGeometry>
        </mxCell>
        <mxCell id="4O4UCcZYAwytdxUnZMrr-360" value="" style="edgeStyle=elbowEdgeStyle;elbow=horizontal;rounded=0;fontColor=#000000;endArrow=none;endFill=0;strokeWidth=8;strokeColor=#23445D;exitX=1;exitY=0.5;exitDx=0;exitDy=0;entryX=0;entryY=0.5;entryDx=0;entryDy=0;" edge="1" parent="1" source="45" target="46">
          <mxGeometry width="100" height="100" relative="1" as="geometry">
            <mxPoint x="210" y="319.05" as="sourcePoint" />
            <mxPoint x="230" y="319.05" as="targetPoint" />
            <Array as="points">
              <mxPoint x="280" y="290" />
            </Array>
          </mxGeometry>
        </mxCell>
        <mxCell id="4O4UCcZYAwytdxUnZMrr-362" value="" style="edgeStyle=elbowEdgeStyle;elbow=horizontal;rounded=0;fontColor=#000000;endArrow=none;endFill=0;strokeWidth=8;strokeColor=#23445D;exitX=1;exitY=0.5;exitDx=0;exitDy=0;entryX=0;entryY=0.5;entryDx=0;entryDy=0;" edge="1" parent="1" source="44" target="50">
          <mxGeometry width="100" height="100" relative="1" as="geometry">
            <mxPoint x="130" y="559.73" as="sourcePoint" />
            <mxPoint x="150" y="559.87" as="targetPoint" />
            <Array as="points" />
          </mxGeometry>
        </mxCell>
        <mxCell id="4O4UCcZYAwytdxUnZMrr-364" value="" style="edgeStyle=elbowEdgeStyle;elbow=horizontal;rounded=0;fontColor=#000000;endArrow=none;endFill=0;strokeWidth=8;strokeColor=#23445D;exitX=1;exitY=0.5;exitDx=0;exitDy=0;entryX=0;entryY=0.5;entryDx=0;entryDy=0;" edge="1" parent="1" source="50" target="51">
          <mxGeometry width="100" height="100" relative="1" as="geometry">
            <mxPoint x="270" y="559.73" as="sourcePoint" />
            <mxPoint x="290" y="559.73" as="targetPoint" />
            <Array as="points" />
          </mxGeometry>
        </mxCell>
        <mxCell id="4O4UCcZYAwytdxUnZMrr-365" value="" style="edgeStyle=elbowEdgeStyle;elbow=horizontal;rounded=0;fontColor=#000000;endArrow=none;endFill=0;strokeWidth=8;strokeColor=#23445D;entryX=0.5;entryY=0;entryDx=0;entryDy=0;exitX=0.5;exitY=1;exitDx=0;exitDy=0;" edge="1" parent="1" source="4O4UCcZYAwytdxUnZMrr-249" target="4O4UCcZYAwytdxUnZMrr-237">
          <mxGeometry width="100" height="100" relative="1" as="geometry">
            <mxPoint x="80" y="390" as="sourcePoint" />
            <mxPoint x="80" y="410" as="targetPoint" />
            <Array as="points" />
          </mxGeometry>
        </mxCell>
        <mxCell id="4O4UCcZYAwytdxUnZMrr-366" value="" style="edgeStyle=elbowEdgeStyle;elbow=horizontal;rounded=0;fontColor=#000000;endArrow=none;endFill=0;strokeWidth=8;strokeColor=#23445D;entryX=0.5;entryY=0;entryDx=0;entryDy=0;exitX=0.5;exitY=1;exitDx=0;exitDy=0;" edge="1" parent="1" source="4O4UCcZYAwytdxUnZMrr-237" target="44">
          <mxGeometry width="100" height="100" relative="1" as="geometry">
            <mxPoint x="80.06" y="470" as="sourcePoint" />
            <mxPoint x="80.06" y="490" as="targetPoint" />
            <Array as="points" />
          </mxGeometry>
        </mxCell>
        <mxCell id="4O4UCcZYAwytdxUnZMrr-368" value="" style="edgeStyle=elbowEdgeStyle;elbow=horizontal;rounded=0;fontColor=#000000;endArrow=none;endFill=0;strokeWidth=8;strokeColor=#23445D;exitX=1;exitY=0.5;exitDx=0;exitDy=0;entryX=0;entryY=0.5;entryDx=0;entryDy=0;" edge="1" parent="1" source="4O4UCcZYAwytdxUnZMrr-263" target="4O4UCcZYAwytdxUnZMrr-264">
          <mxGeometry width="100" height="100" relative="1" as="geometry">
            <mxPoint x="690" y="510" as="sourcePoint" />
            <mxPoint x="710" y="510" as="targetPoint" />
            <Array as="points" />
          </mxGeometry>
        </mxCell>
        <mxCell id="4O4UCcZYAwytdxUnZMrr-369" value="" style="edgeStyle=elbowEdgeStyle;elbow=vertical;rounded=0;fontColor=#000000;endArrow=none;endFill=0;strokeWidth=8;strokeColor=#23445D;exitX=0.5;exitY=1;exitDx=0;exitDy=0;entryX=0.5;entryY=0;entryDx=0;entryDy=0;" edge="1" parent="1" source="134" target="4O4UCcZYAwytdxUnZMrr-262">
          <mxGeometry width="100" height="100" relative="1" as="geometry">
            <mxPoint x="520" y="370" as="sourcePoint" />
            <mxPoint x="490" y="400" as="targetPoint" />
            <Array as="points" />
          </mxGeometry>
        </mxCell>
        <mxCell id="4O4UCcZYAwytdxUnZMrr-370" value="" style="edgeStyle=elbowEdgeStyle;elbow=horizontal;rounded=0;fontColor=#000000;endArrow=none;endFill=0;strokeWidth=8;strokeColor=#23445D;exitX=0.5;exitY=1;exitDx=0;exitDy=0;entryX=0.5;entryY=0;entryDx=0;entryDy=0;" edge="1" parent="1" source="4O4UCcZYAwytdxUnZMrr-262" target="4O4UCcZYAwytdxUnZMrr-273">
          <mxGeometry width="100" height="100" relative="1" as="geometry">
            <mxPoint x="500.09" y="460" as="sourcePoint" />
            <mxPoint x="500.09" y="480" as="targetPoint" />
            <Array as="points" />
          </mxGeometry>
        </mxCell>
        <mxCell id="4O4UCcZYAwytdxUnZMrr-372" value="" style="edgeStyle=elbowEdgeStyle;elbow=horizontal;rounded=0;fontColor=#000000;endArrow=none;endFill=0;strokeWidth=8;strokeColor=#23445D;exitX=0.5;exitY=1;exitDx=0;exitDy=0;entryX=0.5;entryY=0;entryDx=0;entryDy=0;" edge="1" parent="1" source="4O4UCcZYAwytdxUnZMrr-273" target="4O4UCcZYAwytdxUnZMrr-284">
          <mxGeometry width="100" height="100" relative="1" as="geometry">
            <mxPoint x="510" y="560" as="sourcePoint" />
            <mxPoint x="510" y="580" as="targetPoint" />
            <Array as="points" />
          </mxGeometry>
        </mxCell>
        <mxCell id="4O4UCcZYAwytdxUnZMrr-375" value="" style="edgeStyle=elbowEdgeStyle;elbow=vertical;rounded=0;fontColor=#000000;endArrow=none;endFill=0;strokeWidth=8;strokeColor=#23445D;exitX=0.5;exitY=1;exitDx=0;exitDy=0;entryX=0.5;entryY=0;entryDx=0;entryDy=0;" edge="1" parent="1" source="133" target="134">
          <mxGeometry width="100" height="100" relative="1" as="geometry">
            <mxPoint x="489.85" y="300" as="sourcePoint" />
            <mxPoint x="489.85" y="320" as="targetPoint" />
            <Array as="points" />
          </mxGeometry>
        </mxCell>
        <mxCell id="4O4UCcZYAwytdxUnZMrr-376" value="" style="edgeStyle=elbowEdgeStyle;elbow=horizontal;rounded=0;fontColor=#000000;endArrow=none;endFill=0;strokeWidth=8;strokeColor=#23445D;exitX=1;exitY=0.5;exitDx=0;exitDy=0;entryX=0;entryY=0.5;entryDx=0;entryDy=0;" edge="1" parent="1" source="4O4UCcZYAwytdxUnZMrr-264" target="4O4UCcZYAwytdxUnZMrr-265">
          <mxGeometry width="100" height="100" relative="1" as="geometry">
            <mxPoint x="830" y="429.82" as="sourcePoint" />
            <mxPoint x="840" y="410" as="targetPoint" />
            <Array as="points" />
          </mxGeometry>
        </mxCell>
      </root>
    </mxGraphModel>
  </diagram>
</mxfile>
